<svg width="32" height="32" viewBox="0 0 32 32" fill="none" xmlns="http://www.w3.org/2000/svg">
    <path d="M26.964 6.686C24.92 5.754 22.732 5.066 20.444 4.666C20.412 4.66 20.38 4.674 20.364 4.702C20.084 5.186 19.776 5.812 19.564 6.302C17.12 5.93 14.692 5.93 12.292 6.302C12.08 5.804 11.764 5.186 11.482 4.702C11.466 4.676 11.434 4.662 11.402 4.666C9.116 5.064 6.928 5.752 4.882 6.686C4.868 6.692 4.856 6.702 4.848 6.714C1.042 12.584 0.068 18.296 0.554 23.934C0.556 23.954 0.568 23.972 0.584 23.984C3.27 25.98 5.866 27.192 8.414 28C8.446 28.01 8.48 27.996 8.502 27.968C9.104 27.146 9.646 26.28 10.118 25.372C10.138 25.334 10.12 25.288 10.08 25.274C9.224 24.948 8.41 24.554 7.632 24.102C7.588 24.076 7.584 24.014 7.624 23.982C7.784 23.864 7.944 23.742 8.096 23.618C8.12 23.598 8.154 23.594 8.182 23.606C13.188 25.916 18.666 25.916 23.6 23.606C23.628 23.592 23.662 23.596 23.688 23.616C23.84 23.74 24 23.864 24.162 23.982C24.202 24.014 24.2 24.076 24.154 24.102C23.376 24.566 22.562 24.948 21.704 25.272C21.664 25.286 21.648 25.334 21.668 25.372C22.152 26.278 22.694 27.144 23.284 27.966C23.304 27.996 23.34 28.01 23.372 28C25.932 27.192 28.528 25.98 31.214 23.984C31.232 23.972 31.242 23.954 31.244 23.934C31.82 17.424 30.286 11.756 26.946 6.716C26.94 6.702 26.928 6.692 26.914 6.686H26.964ZM11.082 20.498C9.526 20.498 8.246 19.06 8.246 17.274C8.246 15.488 9.5 14.05 11.082 14.05C12.68 14.05 13.946 15.502 13.918 17.274C13.918 19.06 12.664 20.498 11.082 20.498ZM20.732 20.498C19.176 20.498 17.896 19.06 17.896 17.274C17.896 15.488 19.15 14.05 20.732 14.05C22.33 14.05 23.596 15.502 23.568 17.274C23.568 19.06 22.33 20.498 20.732 20.498Z" fill="#5865F2"/>
</svg>
