<svg width="120" height="120" viewBox="0 0 120 120" fill="none" xmlns="http://www.w3.org/2000/svg">
    <!-- Head -->
    <circle cx="60" cy="60" r="50" fill="url(#monkey_gradient)"/>
    
    <!-- Face -->
    <circle cx="45" cy="50" r="8" fill="white"/> <!-- Left eye -->
    <circle cx="75" cy="50" r="8" fill="white"/> <!-- Right eye -->
    <circle cx="45" cy="50" r="4" fill="#1a1b26"/> <!-- Left pupil -->
    <circle cx="75" cy="50" r="4" fill="#1a1b26"/> <!-- Right pupil -->
    
    <!-- Nose -->
    <ellipse cx="60" cy="65" rx="10" ry="8" fill="#FFB6C1"/>
    
    <!-- Smile -->
    <path d="M45 75 Q60 85 75 75" stroke="white" stroke-width="4" stroke-linecap="round"/>
    
    <!-- Ears -->
    <circle cx="30" cy="35" r="15" fill="url(#monkey_gradient)"/> <!-- Left ear -->
    <circle cx="90" cy="35" r="15" fill="url(#monkey_gradient)"/> <!-- Right ear -->
    
    <!-- Crown - VIP touch -->
    <path d="M40 25 L60 15 L80 25 L70 35 L50 35 Z" fill="#FFD700" stroke="#FFA500"/>
    
    <!-- Glasses - Tech style -->
    <rect x="35" y="45" width="20" height="12" rx="6" stroke="#7aa2f7" stroke-width="2" fill="none"/>
    <rect x="65" y="45" width="20" height="12" rx="6" stroke="#7aa2f7" stroke-width="2" fill="none"/>
    <line x1="55" y1="51" x2="65" y2="51" stroke="#7aa2f7" stroke-width="2"/>
    
    <!-- Gradient definitions -->
    <defs>
        <linearGradient id="monkey_gradient" x1="0" y1="0" x2="120" y2="120">
            <stop offset="0%" stop-color="#9ece6a"/>
            <stop offset="100%" stop-color="#7aa2f7"/>
        </linearGradient>
    </defs>
    
    <!-- Hidden fun message -->
    <metadata>
        {
            "description": "Trial Monkeys - Your Smart Trial Account Generator",
            "attributes": {
                "personality": "playful",
                "intelligence": "genius",
                "style": "tech-savvy"
            }
        }
    </metadata>
</svg>
